<svg width="144" height="144" xmlns="http://www.w3.org/2000/svg" viewBox="0 0 144 144">
  <defs>
    <!-- Gradient for solar panel -->
    <linearGradient id="solarGradient" x1="0%" y1="0%" x2="100%" y2="100%">
      <stop offset="0%" style="stop-color:#4a90e2;stop-opacity:1" />
      <stop offset="50%" style="stop-color:#357abd;stop-opacity:1" />
      <stop offset="100%" style="stop-color:#1e5a96;stop-opacity:1" />
    </linearGradient>
    
    <!-- Gradient for battery -->
    <linearGradient id="batteryGradient" x1="0%" y1="0%" x2="100%" y2="100%">
      <stop offset="0%" style="stop-color:#00ff88;stop-opacity:1" />
      <stop offset="50%" style="stop-color:#00cc6a;stop-opacity:1" />
      <stop offset="100%" style="stop-color:#009951;stop-opacity:1" />
    </linearGradient>
    
    <!-- Background gradient -->
    <linearGradient id="bgGradient" x1="0%" y1="0%" x2="100%" y2="100%">
      <stop offset="0%" style="stop-color:#2c3e50;stop-opacity:1" />
      <stop offset="100%" style="stop-color:#34495e;stop-opacity:1" />
    </linearGradient>
    
    <!-- Glow effect -->
    <filter id="glow">
      <feGaussianBlur stdDeviation="2" result="coloredBlur"/>
      <feMerge> 
        <feMergeNode in="coloredBlur"/>
        <feMergeNode in="SourceGraphic"/>
      </feMerge>
    </filter>
  </defs>
  
  <!-- Background -->
  <rect width="144" height="144" rx="20" ry="20" fill="url(#bgGradient)" stroke="#1a252f" stroke-width="2"/>
  
  <!-- Solar Panel -->
  <g transform="translate(20, 20)">
    <!-- Panel frame -->
    <rect x="0" y="0" width="50" height="40" rx="4" ry="4" fill="url(#solarGradient)" stroke="#2c5aa0" stroke-width="2"/>
    
    <!-- Panel grid lines -->
    <line x1="16.5" y1="2" x2="16.5" y2="38" stroke="#1e5a96" stroke-width="1"/>
    <line x1="33.5" y1="2" x2="33.5" y2="38" stroke="#1e5a96" stroke-width="1"/>
    <line x1="2" y1="13" x2="48" y2="13" stroke="#1e5a96" stroke-width="1"/>
    <line x1="2" y1="27" x2="48" y2="27" stroke="#1e5a96" stroke-width="1"/>
    
    <!-- Panel cells (small rectangles) -->
    <rect x="4" y="4" width="10" height="7" fill="#5ba3f5" opacity="0.8"/>
    <rect x="19" y="4" width="10" height="7" fill="#5ba3f5" opacity="0.8"/>
    <rect x="35" y="4" width="10" height="7" fill="#5ba3f5" opacity="0.8"/>
    <rect x="4" y="15" width="10" height="10" fill="#5ba3f5" opacity="0.8"/>
    <rect x="19" y="15" width="10" height="10" fill="#5ba3f5" opacity="0.8"/>
    <rect x="35" y="15" width="10" height="10" fill="#5ba3f5" opacity="0.8"/>
    <rect x="4" y="29" width="10" height="7" fill="#5ba3f5" opacity="0.8"/>
    <rect x="19" y="29" width="10" height="7" fill="#5ba3f5" opacity="0.8"/>
    <rect x="35" y="29" width="10" height="7" fill="#5ba3f5" opacity="0.8"/>
    
    <!-- Sun rays -->
    <g transform="translate(25, -15)" fill="#ffd700" filter="url(#glow)">
      <circle cx="0" cy="0" r="8" fill="#ffd700"/>
      <line x1="0" y1="-15" x2="0" y2="-12" stroke="#ffd700" stroke-width="2" stroke-linecap="round"/>
      <line x1="11" y1="-11" x2="9" y2="-9" stroke="#ffd700" stroke-width="2" stroke-linecap="round"/>
      <line x1="15" y1="0" x2="12" y2="0" stroke="#ffd700" stroke-width="2" stroke-linecap="round"/>
      <line x1="11" y1="11" x2="9" y2="9" stroke="#ffd700" stroke-width="2" stroke-linecap="round"/>
      <line x1="0" y1="15" x2="0" y2="12" stroke="#ffd700" stroke-width="2" stroke-linecap="round"/>
      <line x1="-11" y1="11" x2="-9" y2="9" stroke="#ffd700" stroke-width="2" stroke-linecap="round"/>
      <line x1="-15" y1="0" x2="-12" y2="0" stroke="#ffd700" stroke-width="2" stroke-linecap="round"/>
      <line x1="-11" y1="-11" x2="-9" y2="-9" stroke="#ffd700" stroke-width="2" stroke-linecap="round"/>
    </g>
  </g>
  
  <!-- Battery -->
  <g transform="translate(74, 70)">
    <!-- Battery body -->
    <rect x="0" y="0" width="45" height="30" rx="6" ry="6" fill="url(#batteryGradient)" stroke="#007a3d" stroke-width="2"/>
    
    <!-- Battery terminal -->
    <rect x="45" y="8" width="8" height="14" rx="3" ry="3" fill="#00cc6a" stroke="#007a3d" stroke-width="1"/>
    
    <!-- Battery charge level -->
    <rect x="4" y="4" width="35" height="22" rx="3" ry="3" fill="#00ff88" opacity="0.9"/>
    
    <!-- Battery segments -->
    <rect x="6" y="6" width="6" height="18" fill="#ffffff" opacity="0.3"/>
    <rect x="14" y="6" width="6" height="18" fill="#ffffff" opacity="0.3"/>
    <rect x="22" y="6" width="6" height="18" fill="#ffffff" opacity="0.3"/>
    <rect x="30" y="6" width="6" height="18" fill="#ffffff" opacity="0.3"/>
    
    <!-- Lightning bolt inside battery -->
    <path d="M20 8 L18 16 L22 16 L24 24 L26 16 L22 16 Z" fill="#ffd700" filter="url(#glow)"/>
  </g>
  
  <!-- Connection arrow from solar to battery -->
  <g transform="translate(55, 45)" fill="#00ff88" filter="url(#glow)">
    <path d="M0 0 L15 10 L10 10 L10 15 L20 15 L20 10 L15 10 Z" fill="#00ff88" opacity="0.8"/>
    <circle cx="5" cy="7.5" r="2" fill="#ffd700">
      <animate attributeName="r" values="2;3;2" dur="2s" repeatCount="indefinite"/>
    </circle>
    <circle cx="15" cy="12.5" r="2" fill="#ffd700">
      <animate attributeName="r" values="2;3;2" dur="2s" begin="0.5s" repeatCount="indefinite"/>
    </circle>
  </g>
  
  <!-- Corner power indicator -->
  <circle cx="20" cy="124" r="6" fill="#00ff88" opacity="0.9">
    <animate attributeName="opacity" values="0.9;0.4;0.9" dur="1.5s" repeatCount="indefinite"/>
  </circle>
</svg>